<svg width="238" height="225" viewBox="0 0 238 225" fill="none" xmlns="http://www.w3.org/2000/svg">
<path opacity="0.580174" d="M128.35 0.888989C150.939 4.43451 166.341 21.3984 184.656 33.3539C203.254 45.4944 230.922 52.3939 237.019 71.8255C243.217 91.5832 218.162 108.775 214.671 129.022C211.228 148.996 227.387 170.492 216.897 188.541C206.282 206.807 182.721 217.944 159.88 223.295C138.003 228.42 115.742 220.659 93.376 217.478C71.5687 214.377 47.3978 216.437 29.8764 204.805C12.3313 193.157 7.58165 172.741 -0.704456 155.021C-8.98054 137.323 -21.0602 119.901 -18.6998 100.923C-16.3173 81.7671 -1.66696 65.8444 12.259 50.7916C26.0605 35.8735 41.8752 22.5597 61.6703 14.0506C82.4347 5.1248 105.529 -2.69292 128.35 0.888989Z" fill="#069623" fill-opacity="0.29"/>
</svg>
